<?xml version="1.0" encoding="UTF-8"?>
<svg id="Layer_1" data-name="Layer 1" xmlns="http://www.w3.org/2000/svg" viewBox="0 0 792 612">
  <defs>
    <style>
      .cls-1 {
        fill: #bcbec0;
      }

      .cls-1, .cls-2, .cls-3, .cls-4, .cls-5, .cls-6, .cls-7 {
        stroke-width: 0px;
      }

      .cls-2 {
        fill: #46954d;
      }

      .cls-3 {
        fill: none;
      }

      .cls-4 {
        fill: #10398c;
      }

      .cls-5 {
        fill: #cf1a1a;
      }

      .cls-6 {
        fill: #141516;
      }

      .cls-7 {
        fill: #ffe900;
      }
    </style>
  </defs>
  <path class="cls-6" d="M614.51,189.94c-105.63-67.66-244.81,35.73-253.92,110.25-.3,1.89-.47,3.83-.47,5.81,0,3.39.47,6.64,1.36,9.75-.51-.68-.98-1.36-1.43-2.07-26-96.83,99.39-236.63,195.33-196.88,24.08,20.29,44.22,45.12,59.13,73.14Z"/>
  <path class="cls-1" d="M344.11,547.91c-59.83-12.75-111.65-47.14-146.87-94.6,82.18,53.14,225.07-40.05,231.99-133.84v-.02c1.68-4.15,2.62-8.71,2.62-13.46,0-6.45-1.7-12.5-4.71-17.74,45.2,61.34,32.87,223.32-83.04,259.65Z"/>
  <path class="cls-2" d="M360.06,313.69c.45.7.92,1.38,1.43,2.07,1.58,5.66,4.54,10.75,8.45,14.9-80.4-52.4-83.31-230.29,8.11-271.38h.02c5.92-.45,11.9-.66,17.93-.66,32.81,0,64.13,6.39,92.77,17.99-120.3,27.32-163.73,182.51-128.71,237.08Z"/>
  <path class="cls-1" d="M488.77,76.61c24.38,9.86,46.84,23.51,66.62,40.2-95.94-39.75-221.32,100.05-195.33,196.88-35.02-54.57,8.41-209.76,128.71-237.08Z"/>
  <path class="cls-7" d="M586.19,464.17c-36,43.26-86.53,74.07-144.08,84.91,81.14-51.16,58.91-215.45-20.16-267.78-6.49-6.9-15.73-11.18-25.95-11.18,60.13-20.16,196.71,69.71,190.19,194.05Z"/>
  <path class="cls-4" d="M643.38,306c0,20.99-2.62,41.37-7.54,60.83-8.77-101.81-183.42-155.09-257.6-92-.02,0-.04.02-.04.02-9.2,5.26-15.84,14.48-17.61,25.34,9.11-74.52,148.29-177.91,253.92-110.25,18.44,34.62,28.87,74.11,28.87,116.06Z"/>
  <path class="cls-6" d="M429.24,319.48c-6.92,93.79-149.8,186.98-231.99,133.84-21.82-29.38-37.28-63.79-44.33-101.15,86.83,82.93,235.44,38.6,266.1-18.65l.02-.02c4.45-3.75,7.98-8.54,10.2-14.01Z"/>
  <path class="cls-4" d="M419.02,333.51c-30.66,57.25-179.27,101.58-266.1,18.65v-.02c-2.83-14.95-4.3-30.36-4.3-46.14,0-33,6.45-64.49,18.2-93.28-7.07,99.47,152.49,173.42,237.7,128.11.04,0,.09-.02.13-.04,5.37-1.32,10.28-3.81,14.37-7.28Z"/>
  <path class="cls-5" d="M635.85,366.83s.02.02,0,.04c-9.2,36.3-26.4,69.39-49.65,97.3,6.52-124.34-130.07-214.21-190.19-194.05-6.45,0-12.5,1.72-17.76,4.71,74.18-63.09,248.83-9.82,257.6,92Z"/>
  <path class="cls-5" d="M404.52,340.83c-85.21,45.31-244.76-28.64-237.7-128.11l.02-.02c.02-.09.06-.15.09-.23,0-.02.02-.04.02-.04,11.94-29.36,29.42-55.85,51.12-78.29-29.96,117.23,101.41,214.83,176.44,207.7.02.02.04.02.06,0h.02c.47.04.94.04,1.41.04,2.94,0,5.79-.36,8.52-1.04Z"/>
  <path class="cls-7" d="M394.51,341.83c-75.03,7.13-206.4-90.47-176.44-207.7,41.09-42.54,97.3-70.39,159.98-74.86-91.42,41.09-88.51,218.98-8.11,271.38,0,.02.02.02.02.02,6.22,6.56,14.9,10.77,24.55,11.16Z"/>
  <path class="cls-2" d="M442.12,549.08c-14.95,2.83-30.36,4.3-46.12,4.3-17.8,0-35.15-1.87-51.89-5.47,115.91-36.32,128.24-198.31,83.04-259.65.02-.02,0-.06-.04-.09-1.43-2.49-3.15-4.81-5.15-6.88,79.08,52.33,101.3,216.62,20.16,267.78Z"/>
  <path class="cls-3" d="M360.93,316.71c-.3-1-.6-2-.87-3.02"/>
  <path class="cls-3" d="M378.2,274.85c-.98.83-1.94,1.68-2.87,2.55"/>
</svg>